HIERARCHY
ROOT Hips
{
	OFFSET -0.001795 -0.223333 0.028219
	CHANNELS 6 Xposition Yposition Zposition Zrotation Yrotation Xrotation 
	JOINT LeftUpLeg
	{
		OFFSET 0.069520 -0.091406 -0.006815
		CHANNELS 3 Zrotation Yrotation Xrotation
		JOINT LeftLeg
		{
			OFFSET 0.034277 -0.375199 -0.004496
			CHANNELS 3 Zrotation Yrotation Xrotation
			JOINT LeftFoot
			{
				OFFSET -0.013596 -0.397961 -0.043693
				CHANNELS 3 Zrotation Yrotation Xrotation
				JOINT LeftToe
				{
					OFFSET 0.026358 -0.055791 0.119288
					CHANNELS 3 Zrotation Yrotation Xrotation
					End Site
					{
						OFFSET 0.000000 0.000000 0.000000
					}
				}
			}
		}
	}
	JOINT RightUpLeg
	{
		OFFSET -0.067670 -0.090522 -0.004320
		CHANNELS 3 Zrotation Yrotation Xrotation
		JOINT RightLeg
		{
			OFFSET -0.038290 -0.382569 -0.008850
			CHANNELS 3 Zrotation Yrotation Xrotation
			JOINT RightFoot
			{
				OFFSET 0.015774 -0.398415 -0.042312
				CHANNELS 3 Zrotation Yrotation Xrotation
				JOINT RightToe
				{
					OFFSET -0.025372 -0.048144 0.123348
					CHANNELS 3 Zrotation Yrotation Xrotation
					End Site
					{
						OFFSET 0.000000 0.000000 0.000000
					}
				}
			}
		}
	}
	JOINT Spine
	{
		OFFSET -0.002533 0.108963 -0.026696
		CHANNELS 3 Zrotation Yrotation Xrotation
		JOINT Spine1
		{
			OFFSET 0.005487 0.135180 0.001092
			CHANNELS 3 Zrotation Yrotation Xrotation
			JOINT Spine2
			{
				OFFSET 0.001457 0.052922 0.025425
				CHANNELS 3 Zrotation Yrotation Xrotation
				JOINT Neck
				{
					OFFSET -0.002778 0.213870 -0.042857
					CHANNELS 3 Zrotation Yrotation Xrotation
					JOINT Head
					{
						OFFSET 0.005152 0.064970 0.051349
						CHANNELS 3 Zrotation Yrotation Xrotation
						End Site
						{
							OFFSET 0.000000 0.000000 0.000000
						}
					}
				}
				JOINT LeftShoulder
				{
					OFFSET 0.078845 0.121749 -0.034090
					CHANNELS 3 Zrotation Yrotation Xrotation
					JOINT LeftArm
					{
						OFFSET 0.090977 0.030469 -0.008868
						CHANNELS 3 Zrotation Yrotation Xrotation
						JOINT LeftForeArm
						{
							OFFSET 0.259612 -0.012772 -0.027456
							CHANNELS 3 Zrotation Yrotation Xrotation
							JOINT LeftHand
							{
								OFFSET 0.249234 0.008986 -0.001171
								CHANNELS 3 Zrotation Yrotation Xrotation
								End Site
								{
									OFFSET 0.000000 0.000000 0.000000
								}
							}
						}
					}
				}
				JOINT RightShoulder
				{
					OFFSET -0.081759 0.118833 -0.038615
					CHANNELS 3 Zrotation Yrotation Xrotation
					JOINT RightArm
					{
						OFFSET -0.096012 0.032551 -0.009143
						CHANNELS 3 Zrotation Yrotation Xrotation
						JOINT RightForeArm
						{
							OFFSET -0.253742 -0.013329 -0.021401
							CHANNELS 3 Zrotation Yrotation Xrotation
							JOINT RightHand
							{
								OFFSET -0.255298 0.007772 -0.005559
								CHANNELS 3 Zrotation Yrotation Xrotation
								End Site
								{
									OFFSET 0.000000 0.000000 0.000000
								}
							}
						}
					}
				}
			}
		}
	}
}
MOTION
Frames: 9
Frame Time: 0.050000
-0.361444 0.939806 -0.177704 -0.918733 -14.805479 -3.915859 0.242430 0.476399 4.374336 -2.320858 0.338969 -0.565229 11.906961 23.354102 9.948846 0.000000 0.000000 0.000000 0.210243 -0.323214 3.978863 0.970773 0.040359 2.927167 -9.659009 -22.365518 6.882118 0.000000 0.000000 0.000000 7.896079 -0.843777 9.442816 -6.533870 1.967533 -24.621836 -0.120098 10.608087 33.097653 3.271414 1.348223 -45.649266 0.000000 0.000000 0.000000 -24.014555 -8.899870 4.030347 -59.111454 -1.667580 -9.416334 -7.499165 -24.628020 2.964971 0.000000 0.000000 0.000000 34.418683 -1.065242 -2.680963 65.376609 0.682722 -9.344958 4.139509 28.637125 2.758028 0.000000 0.000000 0.000000 
-0.358924 0.939324 -0.174254 -1.007599 -15.045121 -3.692885 -0.129338 0.479275 4.343383 -2.302578 0.337137 -0.524009 12.148162 23.812872 9.753420 0.000000 0.000000 0.000000 0.035626 -0.298100 3.830384 1.080141 0.053949 3.472791 -10.085672 -23.079052 6.842087 0.000000 0.000000 0.000000 7.500064 -0.784113 8.944732 -6.525691 1.954943 -24.578737 0.154559 10.838597 33.375673 3.749899 1.146277 -45.370573 0.000000 0.000000 0.000000 -23.659797 -8.647088 3.871014 -59.222821 -1.873130 -9.359507 -7.407332 -24.748241 2.967332 0.000000 0.000000 0.000000 34.673835 -0.835495 -2.501597 65.111484 0.943436 -9.210288 3.939366 28.091177 2.649036 0.000000 0.000000 0.000000 
-0.356528 0.938971 -0.171022 -1.078029 -15.192391 -3.577369 -0.268249 0.485500 4.373444 -2.476227 0.361828 -0.339934 12.225074 24.057020 9.271306 0.000000 0.000000 0.000000 -0.057539 -0.274503 3.611553 1.180624 0.076747 4.205508 -10.179327 -23.180263 6.249551 0.000000 0.000000 0.000000 7.235383 -0.746285 8.639100 -6.553495 1.958959 -24.397986 0.295611 10.922270 33.455592 4.043226 0.996589 -44.940886 0.000000 0.000000 0.000000 -23.256574 -8.388979 3.721990 -59.577819 -2.054400 -9.330553 -7.091142 -24.997693 2.942852 0.000000 0.000000 0.000000 34.711445 -0.867562 -2.532551 65.126017 0.752189 -9.321965 3.832223 27.710213 2.578605 0.000000 0.000000 0.000000 
-0.354488 0.938260 -0.168143 -1.141992 -15.414034 -3.358196 -0.524285 0.505516 4.497806 -2.629700 0.385178 -0.273247 12.380582 24.426913 8.897968 0.000000 0.000000 0.000000 -0.280621 -0.229975 3.237564 1.465467 0.079338 4.928676 -10.346494 -23.425205 5.819841 0.000000 0.000000 0.000000 6.587473 -0.706761 8.544079 -6.354404 1.900904 -24.348614 0.513129 11.044083 33.429894 4.393429 0.823392 -44.532252 0.000000 0.000000 0.000000 -22.923425 -8.297463 3.673713 -59.885373 -2.492020 -9.153918 -6.866432 -25.012033 2.901439 0.000000 0.000000 0.000000 34.740396 -0.812342 -2.509397 65.078860 0.683420 -9.348403 3.717936 27.253418 2.494520 0.000000 0.000000 0.000000 
-0.353163 0.937968 -0.165632 -1.277421 -15.463222 -3.132270 -0.604100 0.532049 4.704966 -2.719497 0.398951 -0.476057 12.358037 24.433657 8.754008 0.000000 0.000000 0.000000 -0.369975 -0.188786 2.753082 1.803941 0.068326 5.537377 -10.611625 -23.902088 5.868168 0.000000 0.000000 0.000000 6.307935 -0.693599 8.517491 -6.416420 1.915473 -24.111283 0.505789 10.770654 33.305447 4.821225 0.600020 -44.360212 0.000000 0.000000 0.000000 -23.015642 -8.213453 3.718963 -60.001227 -2.733244 -9.049349 -6.287542 -25.354494 2.833562 0.000000 0.000000 0.000000 35.034498 -0.570784 -2.520394 65.130723 0.524932 -9.386382 3.679993 26.790643 2.410034 0.000000 0.000000 0.000000 
-0.352538 0.937575 -0.163469 -1.334798 -15.725373 -2.732299 -0.695236 0.540623 4.751828 -2.835158 0.417588 -0.633269 12.377644 24.500101 8.658191 0.000000 0.000000 0.000000 -0.701790 -0.078984 1.565524 2.304450 0.066435 6.778642 -10.778083 -24.214313 5.859952 0.000000 0.000000 0.000000 6.008514 -0.692243 8.664707 -6.386688 1.900035 -24.151609 0.482043 11.029671 33.259560 5.467134 0.330594 -44.131447 0.000000 0.000000 0.000000 -22.918201 -8.333687 3.766814 -59.784894 -3.171497 -8.798048 -6.447354 -25.607255 2.895525 0.000000 0.000000 0.000000 35.404225 -0.634381 -2.584348 65.389766 0.697405 -9.315122 3.201932 26.797708 2.315741 0.000000 0.000000 0.000000 
-0.352573 0.937443 -0.161536 -1.606264 -15.940649 -2.230073 -0.635418 0.513936 4.542686 -2.702730 0.399449 -0.598094 12.363152 24.475143 8.633266 0.000000 0.000000 0.000000 -0.848435 0.028875 0.249666 2.910376 0.049755 8.080525 -11.054626 -24.735986 5.944365 0.000000 0.000000 0.000000 5.934799 -0.708665 8.855740 -6.414052 1.899108 -24.121110 0.510942 11.100336 33.201604 5.712875 0.208886 -44.003734 0.000000 0.000000 0.000000 -23.092845 -8.709952 4.013248 -59.264215 -3.711651 -8.466109 -6.208553 -25.714369 2.845362 0.000000 0.000000 0.000000 35.902911 -0.631332 -2.680558 65.522092 0.874442 -9.210414 2.639011 26.491609 2.160943 0.000000 0.000000 0.000000 
-0.353043 0.936606 -0.159773 -1.915736 -16.063596 -1.816747 -0.680498 0.511265 4.513890 -2.305091 0.343517 -0.753357 12.238332 24.252407 8.648508 0.000000 0.000000 0.000000 -0.983191 0.144382 -1.132242 3.568452 0.041190 9.878935 -11.366269 -25.337694 6.154327 0.000000 0.000000 0.000000 6.006576 -0.747086 9.259405 -6.555469 1.930914 -24.265478 0.488512 11.051217 33.243727 6.402253 -0.117028 -43.734175 0.000000 0.000000 0.000000 -22.889747 -9.148234 4.310251 -58.944445 -4.597262 -8.006550 -6.097914 -25.447647 2.778464 0.000000 0.000000 0.000000 35.989650 -0.552356 -2.694833 66.014188 1.279253 -9.024052 1.953461 26.694230 2.038398 0.000000 0.000000 0.000000 
-0.354033 0.936257 -0.158434 -2.209522 -15.921547 -1.359879 -0.577206 0.505641 4.496758 -1.874488 0.283291 -0.903826 11.919880 23.757385 8.330240 0.000000 0.000000 0.000000 -1.174579 0.275327 -2.629320 4.266896 0.008433 11.589385 -11.493405 -25.649993 6.291306 0.000000 0.000000 0.000000 6.022936 -0.795665 9.835710 -6.614363 1.948077 -24.413322 0.578559 10.615790 33.288363 6.621750 -0.197419 -44.261403 0.000000 0.000000 0.000000 -22.909880 -9.602677 4.684180 -58.446489 -5.481921 -7.543764 -5.946288 -25.675293 2.774799 0.000000 0.000000 0.000000 35.858350 -0.487459 -2.799053 66.309420 1.763445 -8.741388 1.412898 27.030511 1.940106 0.000000 0.000000 0.000000 
